<svg version="1.1" viewBox="0 0 640 400" xmlns="http://www.w3.org/2000/svg" xmlns:xlink="http://www.w3.org/1999/xlink" xmlns:svgjs="http://svgjs.dev/svgjs" matcher="0.6112860577867623"><g viewBox="0 0 640 400" matcher="0.6112860577867623"><g matcher="0.6112860577867623"><g matcher="0.6112860577867623"><g matcher="0.6112860577867623"><svg viewBox="0 0 640 400" data-background-color="#dbefed" preserveAspectRatio="xMidYMid meet" height="400" width="640" xmlns="http://www.w3.org/2000/svg" xmlns:xlink="http://www.w3.org/1999/xlink"><rect width="640" height="400" x="0" y="0" opacity="1" fill="#dbefed" data-fill-palette-color="background" id="background"></rect><g id="tight-bounds" transform="matrix(1,0,0,1,122.24000000000004,131.78679332122277)"><svg viewBox="0 0 395.5199999999999 136.42641335755448" height="136.42641335755448" width="395.5199999999999"><g><svg viewBox="0 0 656.2581485973833 226.36262502480287" height="136.42641335755448" width="395.5199999999999"><g transform="matrix(1,0,0,1,260.7381485973833,54.94919825090347)"><svg viewBox="0 0 395.52 116.46422852299592" height="116.46422852299592" width="395.52"><g id="textblocktransform"><svg viewBox="0 0 395.52 116.46422852299592" height="116.46422852299592" width="395.52" id="textblock"><g><svg viewBox="0 0 395.52 72.80605307735742" height="72.80605307735742" width="395.52"><g transform="matrix(1,0,0,1,0,0)"><svg width="395.52" viewBox="4.650000095367432 -32.25 177.1300048828125 32.599998474121094" height="72.80605307735742" data-palette-color="#cb1106"><g class="wordmark-text-0" data-fill-palette-color="primary" id="text-0"><path d="M16.25-32.25Q23.1-32.25 26.75-28.35 30.4-24.45 30.4-17.15L30.4-17.15Q30.4-8.7 26.45-4.2 22.5 0.3 15.1 0.3L15.1 0.3Q13.05 0.3 10.13 0.23 7.2 0.15 4.7 0L4.7 0 4.65 0 4.9-9.65 4.65-32.05 4.7-32.05 16.25-32.25ZM15.75-3.05Q20.85-3.05 23.58-6.38 26.3-9.7 26.3-16.3L26.3-16.3Q26.3-28.9 15.95-28.9L15.95-28.9Q12.8-28.9 8.7-28.7L8.7-28.7 8.5-10 8.65-3.35Q10.2-3.2 12.38-3.13 14.55-3.05 15.75-3.05L15.75-3.05ZM48.25-10.05Q51.3-5.4 55-0.9L55-0.9 54.95-0.4Q52.85 0.25 51.5 0.35L51.5 0.35 50.85-0.05Q47.05-5.8 45.1-9.1L45.1-9.1 40.4-9.05 40.4-7.8 40.5 0 36.8 0 36.95-7.5 36.8-24.9 45.3-24.95Q49.25-24.95 51.37-23.1 53.5-21.25 53.5-17.75L53.5-17.75Q53.5-15.2 52.12-13.2 50.75-11.2 48.25-10.05L48.25-10.05ZM40.5-21.9L40.45-12.15 45.15-12Q49.6-13.25 49.6-17.45L49.6-17.45Q49.6-19.65 48.3-20.75 47-21.85 44.35-21.95L44.35-21.95 40.5-21.9ZM62.9-4.4Q63.9-4.4 64.5-3.8 65.1-3.2 65.1-2.15L65.1-2.15Q65.1-1.05 64.47-0.4 63.85 0.25 62.75 0.25L62.75 0.25Q61.7 0.25 61.12-0.35 60.55-0.95 60.55-2.05L60.55-2.05Q60.55-3.1 61.17-3.75 61.8-4.4 62.9-4.4L62.9-4.4ZM86.24-3.15L86.44-2.8 86.19 0 72.94 0 73.09-7.5 72.94-24.9 76.69-24.9 76.54-7.8 76.64-3.15 86.24-3.15ZM95.64-24.9L95.49-7.8 95.59 0 91.89 0 92.04-7.5 91.89-24.9 95.64-24.9ZM125.64-25L125.49-7.45 125.54 0 121.54 0 108.44-19 108.19-19 108.14-8.3 108.24 0 104.84 0 104.99-7.35 104.89-24.9 108.84-24.9 121.94-5.9 122.29-5.9 122.19-24.75 125.64-25ZM153.94-24.9L153.79-12.25 153.79-8.65Q153.84-4.4 151.21-2.05 148.59 0.3 143.69 0.3L143.69 0.3Q138.84 0.3 136.29-2.02 133.74-4.35 133.84-8.65L133.84-8.65 133.89-12.45 133.84-24.9 137.59-24.9 137.39-9.25Q137.34-6.1 138.96-4.5 140.59-2.9 143.84-2.9L143.84-2.9Q147.04-2.9 148.69-4.5 150.34-6.1 150.29-9.25L150.29-9.25 150.14-24.9 153.94-24.9ZM181.18-24.9L172.83-13 181.78 0 177.28 0 176.13-2.15 170.33-10.1 164.28-1.95 163.18 0 159.23 0 168.13-12.5 159.48-24.9 164.13-24.9 165.18-22.8 170.63-15.35 176.08-22.85 177.13-24.9 181.18-24.9Z" fill="#cb1106" data-fill-palette-color="primary"></path></g></svg></g></svg></g><g transform="matrix(1,0,0,1,0,89.99381486364766)"><svg viewBox="0 0 232.209792 26.470413659348274" height="26.470413659348274" width="232.209792"><g transform="matrix(1,0,0,1,0,0)"><svg width="232.209792" viewBox="3.440000057220459 -38.0099983215332 422.5199890136719 48.16999816894531" height="26.470413659348274" data-palette-color="#cb1106"><path d="M8.33-26.42L8.33 0 3.81 0 3.81-26.42 8.33-26.42ZM3.44-33.42L3.44-33.42Q3.44-34.52 4.11-35.28 4.79-36.04 6.1-36.04 7.42-36.04 8.11-35.28 8.79-34.52 8.79-33.42 8.79-32.32 8.11-31.59 7.42-30.86 6.1-30.86 4.79-30.86 4.11-31.59 3.44-32.32 3.44-33.42ZM15.55-26.42L19.82-26.42 19.97-23.1Q23-26.9 27.88-26.9L27.88-26.9Q36.25-26.9 36.33-17.46L36.33-17.46 36.33 0 31.81 0 31.81-17.48Q31.78-20.34 30.5-21.7 29.22-23.07 26.51-23.07L26.51-23.07Q24.31-23.07 22.65-21.9 20.99-20.73 20.07-18.82L20.07-18.82 20.07 0 15.55 0 15.55-26.42ZM58.52-7.01L58.52-7.01Q58.52-8.84 57.14-9.85 55.76-10.86 52.33-11.6 48.9-12.33 46.88-13.35 44.87-14.38 43.9-15.8 42.94-17.21 42.94-19.17L42.94-19.17Q42.94-22.41 45.69-24.66 48.43-26.9 52.7-26.9L52.7-26.9Q57.2-26.9 59.99-24.58 62.79-22.27 62.79-18.65L62.79-18.65 58.25-18.65Q58.25-20.51 56.67-21.85 55.1-23.19 52.7-23.19L52.7-23.19Q50.24-23.19 48.85-22.12 47.46-21.04 47.46-19.31L47.46-19.31Q47.46-17.68 48.75-16.85 50.04-16.02 53.43-15.26 56.81-14.5 58.91-13.45 61.01-12.4 62.02-10.93 63.03-9.45 63.03-7.32L63.03-7.32Q63.03-3.78 60.2-1.65 57.37 0.49 52.85 0.49L52.85 0.49Q49.68 0.49 47.24-0.63 44.79-1.76 43.42-3.77 42.04-5.79 42.04-8.13L42.04-8.13 46.55-8.13Q46.67-5.86 48.37-4.53 50.07-3.2 52.85-3.2L52.85-3.2Q55.41-3.2 56.97-4.24 58.52-5.27 58.52-7.01ZM91.23-13.33L91.23-12.92Q91.23-6.88 88.47-3.2 85.71 0.49 81 0.49L81 0.49Q76.19 0.49 73.43-2.56L73.43-2.56 73.43 10.16 68.91 10.16 68.91-26.42 73.04-26.42 73.26-23.49Q76.02-26.9 80.93-26.9L80.93-26.9Q85.69-26.9 88.46-23.32 91.23-19.73 91.23-13.33L91.23-13.33ZM86.71-13.43L86.71-13.43Q86.71-17.9 84.81-20.48 82.9-23.07 79.58-23.07L79.58-23.07Q75.48-23.07 73.43-19.43L73.43-19.43 73.43-6.81Q75.46-3.2 79.63-3.2L79.63-3.2Q82.88-3.2 84.79-5.77 86.71-8.35 86.71-13.43ZM107.92 0.49L107.92 0.49Q102.55 0.49 99.18-3.04 95.82-6.57 95.82-12.48L95.82-12.48 95.82-13.31Q95.82-17.24 97.32-20.32 98.82-23.41 101.52-25.16 104.21-26.9 107.36-26.9L107.36-26.9Q112.51-26.9 115.37-23.51 118.23-20.12 118.23-13.79L118.23-13.79 118.23-11.91 100.33-11.91Q100.43-8.01 102.61-5.6 104.8-3.2 108.17-3.2L108.17-3.2Q110.56-3.2 112.22-4.17 113.88-5.15 115.13-6.76L115.13-6.76 117.89-4.61Q114.57 0.49 107.92 0.49ZM107.36-23.19L107.36-23.19Q104.63-23.19 102.77-21.2 100.92-19.21 100.48-15.63L100.48-15.63 113.71-15.63 113.71-15.97Q113.52-19.41 111.86-21.3 110.2-23.19 107.36-23.19ZM134.05-3.2L134.05-3.2Q136.46-3.2 138.27-4.66 140.08-6.13 140.27-8.33L140.27-8.33 144.54-8.33Q144.42-6.05 142.98-4 141.54-1.95 139.14-0.73 136.73 0.49 134.05 0.49L134.05 0.49Q128.65 0.49 125.46-3.11 122.28-6.71 122.28-12.96L122.28-12.96 122.28-13.72Q122.28-17.58 123.69-20.58 125.11-23.58 127.76-25.24 130.41-26.9 134.02-26.9L134.02-26.9Q138.46-26.9 141.41-24.24 144.35-21.58 144.54-17.33L144.54-17.33 140.27-17.33Q140.08-19.9 138.33-21.55 136.58-23.19 134.02-23.19L134.02-23.19Q130.58-23.19 128.69-20.72 126.79-18.24 126.79-13.55L126.79-13.55 126.79-12.7Q126.79-8.13 128.67-5.66 130.55-3.2 134.05-3.2ZM151.23-32.81L155.75-32.81 155.75-26.42 160.68-26.42 160.68-22.92 155.75-22.92 155.75-6.54Q155.75-4.96 156.41-4.16 157.07-3.37 158.65-3.37L158.65-3.37Q159.43-3.37 160.8-3.66L160.8-3.66 160.8 0Q159.02 0.49 157.33 0.49L157.33 0.49Q154.31 0.49 152.77-1.34 151.23-3.17 151.23-6.54L151.23-6.54 151.23-22.92 146.42-22.92 146.42-26.42 151.23-26.42 151.23-32.81ZM185.06 0L180.55 0 180.55-22.92 176.37-22.92 176.37-26.42 180.55-26.42 180.55-29.13Q180.55-33.37 182.82-35.69 185.09-38.01 189.24-38.01L189.24-38.01Q190.8-38.01 192.34-37.6L192.34-37.6 192.09-33.94Q190.95-34.16 189.65-34.16L189.65-34.16Q187.46-34.16 186.26-32.87 185.06-31.59 185.06-29.2L185.06-29.2 185.06-26.42 190.7-26.42 190.7-22.92 185.06-22.92 185.06 0ZM194.48-13.13L194.48-13.45Q194.48-17.33 196.01-20.43 197.54-23.54 200.26-25.22 202.98-26.9 206.47-26.9L206.47-26.9Q211.87-26.9 215.2-23.17 218.53-19.43 218.53-13.23L218.53-13.23 218.53-12.92Q218.53-9.06 217.06-5.99 215.58-2.93 212.83-1.22 210.08 0.49 206.52 0.49L206.52 0.49Q201.15 0.49 197.82-3.25 194.48-6.98 194.48-13.13L194.48-13.13ZM199.03-12.92L199.03-12.92Q199.03-8.52 201.06-5.86 203.1-3.2 206.52-3.2L206.52-3.2Q209.96-3.2 211.99-5.9 214.02-8.59 214.02-13.45L214.02-13.45Q214.02-17.8 211.95-20.5 209.89-23.19 206.47-23.19L206.47-23.19Q203.13-23.19 201.08-20.53 199.03-17.87 199.03-12.92ZM236.96-26.56L236.96-22.36Q235.94-22.53 234.74-22.53L234.74-22.53Q230.3-22.53 228.71-18.75L228.71-18.75 228.71 0 224.19 0 224.19-26.42 228.59-26.42 228.66-23.36Q230.88-26.9 234.96-26.9L234.96-26.9Q236.28-26.9 236.96-26.56L236.96-26.56ZM252.39-13.09L252.39-13.43Q252.39-19.51 255.27-23.21 258.15-26.9 262.81-26.9L262.81-26.9Q267.45-26.9 270.16-23.73L270.16-23.73 270.16-37.5 274.68-37.5 274.68 0 270.53 0 270.31-2.83Q267.6 0.49 262.76 0.49L262.76 0.49Q258.17 0.49 255.28-3.27 252.39-7.03 252.39-13.09L252.39-13.09ZM256.9-12.92L256.9-12.92Q256.9-8.42 258.76-5.88 260.61-3.34 263.89-3.34L263.89-3.34Q268.18-3.34 270.16-7.2L270.16-7.2 270.16-19.34Q268.13-23.07 263.93-23.07L263.93-23.07Q260.61-23.07 258.76-20.51 256.9-17.94 256.9-12.92ZM292.64 0.49L292.64 0.49Q287.27 0.49 283.9-3.04 280.53-6.57 280.53-12.48L280.53-12.48 280.53-13.31Q280.53-17.24 282.04-20.32 283.54-23.41 286.23-25.16 288.93-26.9 292.08-26.9L292.08-26.9Q297.23-26.9 300.09-23.51 302.95-20.12 302.95-13.79L302.95-13.79 302.95-11.91 285.05-11.91Q285.15-8.01 287.33-5.6 289.52-3.2 292.89-3.2L292.89-3.2Q295.28-3.2 296.94-4.17 298.6-5.15 299.85-6.76L299.85-6.76 302.6-4.61Q299.28 0.49 292.64 0.49ZM292.08-23.19L292.08-23.19Q289.35-23.19 287.49-21.2 285.64-19.21 285.2-15.63L285.2-15.63 298.43-15.63 298.43-15.97Q298.23-19.41 296.57-21.3 294.91-23.19 292.08-23.19ZM323.55-7.01L323.55-7.01Q323.55-8.84 322.17-9.85 320.79-10.86 317.36-11.6 313.93-12.33 311.92-13.35 309.9-14.38 308.94-15.8 307.97-17.21 307.97-19.17L307.97-19.17Q307.97-22.41 310.72-24.66 313.47-26.9 317.74-26.9L317.74-26.9Q322.23-26.9 325.03-24.58 327.82-22.27 327.82-18.65L327.82-18.65 323.28-18.65Q323.28-20.51 321.71-21.85 320.13-23.19 317.74-23.19L317.74-23.19Q315.27-23.19 313.88-22.12 312.49-21.04 312.49-19.31L312.49-19.31Q312.49-17.68 313.78-16.85 315.08-16.02 318.46-15.26 321.84-14.5 323.94-13.45 326.04-12.4 327.05-10.93 328.07-9.45 328.07-7.32L328.07-7.32Q328.07-3.78 325.23-1.65 322.4 0.49 317.88 0.49L317.88 0.49Q314.71 0.49 312.27-0.63 309.83-1.76 308.45-3.77 307.07-5.79 307.07-8.13L307.07-8.13 311.59-8.13Q311.71-5.86 313.4-4.53 315.1-3.2 317.88-3.2L317.88-3.2Q320.45-3.2 322-4.24 323.55-5.27 323.55-7.01ZM350.52 0L341.32-12.23 338.49-9.28 338.49 0 333.97 0 333.97-37.5 338.49-37.5 338.49-14.82 340.9-17.72 349.13-26.42 354.63-26.42 344.35-15.38 355.82 0 350.52 0ZM360.9-32.81L365.41-32.81 365.41-26.42 370.35-26.42 370.35-22.92 365.41-22.92 365.41-6.54Q365.41-4.96 366.07-4.16 366.73-3.37 368.32-3.37L368.32-3.37Q369.1-3.37 370.47-3.66L370.47-3.66 370.47 0Q368.69 0.49 367 0.49L367 0.49Q363.97 0.49 362.44-1.34 360.9-3.17 360.9-6.54L360.9-6.54 360.9-22.92 356.09-22.92 356.09-26.42 360.9-26.42 360.9-32.81ZM373.93-13.13L373.93-13.45Q373.93-17.33 375.46-20.43 376.98-23.54 379.71-25.22 382.43-26.9 385.92-26.9L385.92-26.9Q391.31-26.9 394.65-23.17 397.98-19.43 397.98-13.23L397.98-13.23 397.98-12.92Q397.98-9.06 396.5-5.99 395.03-2.93 392.28-1.22 389.53 0.49 385.97 0.49L385.97 0.49Q380.6 0.49 377.26-3.25 373.93-6.98 373.93-13.13L373.93-13.13ZM378.47-12.92L378.47-12.92Q378.47-8.52 380.51-5.86 382.55-3.2 385.97-3.2L385.97-3.2Q389.41-3.2 391.44-5.9 393.46-8.59 393.46-13.45L393.46-13.45Q393.46-17.8 391.4-20.5 389.34-23.19 385.92-23.19L385.92-23.19Q382.57-23.19 380.52-20.53 378.47-17.87 378.47-12.92ZM425.96-13.33L425.96-12.92Q425.96-6.88 423.2-3.2 420.44 0.49 415.73 0.49L415.73 0.49Q410.92 0.49 408.16-2.56L408.16-2.56 408.16 10.16 403.64 10.16 403.64-26.42 407.77-26.42 407.99-23.49Q410.75-26.9 415.65-26.9L415.65-26.9Q420.41-26.9 423.18-23.32 425.96-19.73 425.96-13.33L425.96-13.33ZM421.44-13.43L421.44-13.43Q421.44-17.9 419.54-20.48 417.63-23.07 414.31-23.07L414.31-23.07Q410.21-23.07 408.16-19.43L408.16-19.43 408.16-6.81Q410.18-3.2 414.36-3.2L414.36-3.2Q417.61-3.2 419.52-5.77 421.44-8.35 421.44-13.43Z" opacity="1" transform="matrix(1,0,0,1,0,0)" fill="#cb1106" class="slogan-text-1" data-fill-palette-color="secondary" id="text-1"></path></svg></g></svg></g></svg></g></svg></g><g><svg viewBox="0 0 226.36262502480287 226.36262502480287" height="226.36262502480287" width="226.36262502480287"><g><svg></svg></g><g id="icon-0"><svg viewBox="0 0 226.36262502480287 226.36262502480287" height="226.36262502480287" width="226.36262502480287"><g><path d="M0 113.181c0-62.508 50.673-113.181 113.181-113.181 62.508 0 113.181 50.673 113.182 113.181 0 62.508-50.673 113.181-113.182 113.182-62.508 0-113.181-50.673-113.181-113.182zM113.181 219.797c58.882 0 106.616-47.733 106.616-106.616 0-58.882-47.733-106.616-106.616-106.615-58.882 0-106.616 47.733-106.615 106.615 0 58.882 47.733 106.616 106.615 106.616z" data-fill-palette-color="accent" fill="#f64d08" stroke="transparent"></path></g><g transform="matrix(1,0,0,1,48.57266893309935,47.99282160829728)"><svg viewBox="0 0 129.21728715860417 130.3769818082083" height="130.3769818082083" width="129.21728715860417"><g><svg xmlns="http://www.w3.org/2000/svg" xmlns:xlink="http://www.w3.org/1999/xlink" version="1.1" x="0" y="0" viewBox="6.3379998207092285 7 76.32400512695312 77.00899505615234" enable-background="new 0 0 89 89" xml:space="preserve" height="130.3769818082083" width="129.21728715860417" class="icon-symbol-0" data-fill-palette-color="accent" id="symbol-0"><rect x="6.338" y="7" width="76.324" height="19.885" fill="#f64d08" data-fill-palette-color="accent"></rect><rect x="6.338" y="30.5" width="26.111" height="26.109" fill="#f64d08" data-fill-palette-color="accent"></rect><rect x="37.872" y="31.1" width="44.79" height="4.017" fill="#f64d08" data-fill-palette-color="accent"></rect><rect x="37.872" y="37.932" width="44.79" height="4.017" fill="#f64d08" data-fill-palette-color="accent"></rect><rect x="37.872" y="45.041" width="44.79" height="4.017" fill="#f64d08" data-fill-palette-color="accent"></rect><rect x="37.872" y="52.124" width="44.79" height="4.018" fill="#f64d08" data-fill-palette-color="accent"></rect><rect x="6.338" y="58.966" width="76.324" height="4.018" fill="#f64d08" data-fill-palette-color="accent"></rect><rect x="6.338" y="65.797" width="76.324" height="4.018" fill="#f64d08" data-fill-palette-color="accent"></rect><rect x="6.338" y="72.907" width="76.324" height="4.018" fill="#f64d08" data-fill-palette-color="accent"></rect><rect x="6.338" y="79.991" width="76.324" height="4.018" fill="#f64d08" data-fill-palette-color="accent"></rect></svg></g></svg></g></svg></g></svg></g></svg></g><defs></defs></svg><rect width="395.5199999999999" height="136.42641335755448" fill="none" stroke="none" visibility="hidden"></rect></g></svg></g></g></g></g><rect width="250.37575544874846" height="55.87203545850383" x="274.3842200437804" y="159.90782558651378" rx="2.5" ry="2.5" fill="transparent" class="logo-element-hover-target"></rect><rect width="151.93453768915958" height="27.95342688207859" x="274.39210169410865" y="214.14244670219855" rx="2.5" ry="2.5" fill="transparent" class="logo-element-hover-target"></rect><rect width="148.4266084515085" height="148.42666421790238" x="117.24002450747116" y="126.78678871823547" rx="2.5" ry="2.5" fill="transparent" class="logo-element-hover-target"></rect></svg>